{
  "source": "C:\\Users\\Peter\\Desktop\\stuff\\MIUN\\quantitative_research\\video_compression\\videos\\UVG\\Beauty_1920x1080_120fps_420_8bit_YUV.y4m",
  "output": "C:\\Users\\Peter\\Desktop\\stuff\\MIUN\\quantitative_research\\video_compression\\compressed_videos\\UVG\\h264\\4\\Beauty_1920x1080_120fps_420_8bit_YUV_h264.mp4",
  "codec": "h264",
  "ok": "[yuv4mpegpipe @ 000001d2ddb16600] Stream #0: not enough frames to estimate rate; consider increasing probesize\nInput #0, yuv4mpegpipe, from 'C:\\Users\\Peter\\Desktop\\stuff\\MIUN\\quantitative_research\\video_compression\\videos\\UVG\\Beauty_1920x1080_120fps_420_8bit_YUV.y4m':\n  Duration: 00:00:05.00, start: 0.000000, bitrate: 2985989 kb/s\n  Stream #0:0: Video: rawvideo (I420 / 0x30323449), yuv420p(progressive), 1920x1080, 120 fps, 120 tbr, 120 tbn\n[out#0/mp4 @ 000001d2ddb1a180] Codec AVOption b:a (set bitrate (in bits/s)) has not been used for any stream. The most likely reason is either wrong type (e.g. a video option with no video streams) or that it is a private option of some decoder which was not actually used for any stream.\nStream mapping:\n  Stream #0:0 -> #0:0 (rawvideo (native) -> h264 (libx264))\nPress [q] to stop, [?] for help\n[libx264 @ 000001d2ddb1c940] using cpu capabilities: MMX2 SSE2Fast SSSE3 SSE4.2 AVX FMA3 BMI2 AVX2\n[libx264 @ 000001d2ddb1c940] profile High, level 5.1, 4:2:0, 8-bit\n[libx264 @ 000001d2ddb1c940] 264 - core 165 r3222 b35605a - H.264/MPEG-4 AVC codec - Copyleft 2003-2025 - http://www.videolan.org/x264.html - options: cabac=1 ref=5 deblock=1:0:0 analyse=0x3:0x113 me=hex subme=8 psy=1 psy_rd=1.00:0.00 mixed_ref=1 me_range=16 chroma_me=1 trellis=2 8x8dct=1 cqm=0 deadzone=21,11 fast_pskip=1 chroma_qp_offset=-2 threads=18 lookahead_threads=3 sliced_threads=0 nr=0 decimate=1 interlaced=0 bluray_compat=0 constrained_intra=0 bframes=3 b_pyramid=2 b_adapt=1 b_bias=0 direct=3 weightb=1 open_gop=0 weightp=2 keyint=250 keyint_min=25 scenecut=40 intra_refresh=0 rc_lookahead=50 rc=cbr mbtree=1 bitrate=4000 ratetol=1.0 qcomp=0.60 qpmin=0 qpmax=69 qpstep=4 vbv_maxrate=4000 vbv_bufsize=4000 nal_hrd=none filler=0 ip_ratio=1.40 aq=1:1.00\nOutput #0, mp4, to 'C:\\Users\\Peter\\Desktop\\stuff\\MIUN\\quantitative_research\\video_compression\\compressed_videos\\UVG\\h264\\4\\Beauty_1920x1080_120fps_420_8bit_YUV_h264.mp4':\n  Metadata:\n    encoder         : Lavf62.3.100\n  Stream #0:0: Video: h264 (avc1 / 0x31637661), yuv420p(tv, progressive), 1920x1080, q=2-31, 4000 kb/s, 120 fps, 15360 tbn\n    Metadata:\n      encoder         : Lavc62.11.100 libx264\n    Side data:\n      cpb: bitrate max/min/avg: 4000000/0/4000000 buffer size: 4000000 vbv_delay: N/A\nframe=    2 fps=0.0 q=45.0 size=       0KiB time=00:00:00.00 bitrate=N/A speed=   0x elapsed=0:00:00.52    \nframe=   56 fps= 54 q=38.0 size=       0KiB time=00:00:00.45 bitrate=   0.9kbits/s speed=0.437x elapsed=0:00:01.03    \nframe=   72 fps= 46 q=38.0 size=       0KiB time=00:00:00.58 bitrate=   0.7kbits/s speed=0.376x elapsed=0:00:01.55    \nframe=   97 fps= 47 q=38.0 size=     256KiB time=00:00:00.79 bitrate=2649.5kbits/s speed=0.385x elapsed=0:00:02.05    \nframe=  123 fps= 48 q=38.0 size=     256KiB time=00:00:01.00 bitrate=2080.2kbits/s speed=0.391x elapsed=0:00:02.57    \nframe=  149 fps= 48 q=38.0 size=     512KiB time=00:00:01.22 bitrate=3424.2kbits/s speed=0.396x elapsed=0:00:03.09    \nframe=  174 fps= 48 q=38.0 size=     512KiB time=00:00:01.43 bitrate=2926.5kbits/s speed=0.398x elapsed=0:00:03.60    \nframe=  198 fps= 48 q=39.0 size=     512KiB time=00:00:01.63 bitrate=2568.2kbits/s speed=0.396x elapsed=0:00:04.12    \nframe=  223 fps= 48 q=39.0 size=     768KiB time=00:00:01.84 bitrate=3416.4kbits/s speed=0.397x elapsed=0:00:04.64    \nframe=  269 fps= 52 q=38.0 size=     768KiB time=00:00:02.22 bitrate=2827.8kbits/s speed=0.432x elapsed=0:00:05.15    \nframe=  309 fps= 54 q=38.0 size=    1024KiB time=00:00:02.55 bitrate=3279.1kbits/s speed=0.451x elapsed=0:00:05.67    \nframe=  346 fps= 56 q=38.0 size=    1280KiB time=00:00:02.86 bitrate=3658.0kbits/s speed=0.463x elapsed=0:00:06.18    \nframe=  377 fps= 56 q=38.0 size=    1280KiB time=00:00:03.12 bitrate=3355.6kbits/s speed=0.467x elapsed=0:00:06.69    \nframe=  419 fps= 58 q=38.0 size=    1536KiB time=00:00:03.47 bitrate=3621.1kbits/s speed=0.482x elapsed=0:00:07.21    \nframe=  463 fps= 60 q=38.0 size=    1536KiB time=00:00:03.84 bitrate=3275.5kbits/s speed=0.497x elapsed=0:00:07.73    \nframe=  475 fps= 58 q=38.0 size=    1792KiB time=00:00:03.94 bitrate=3724.4kbits/s speed=0.478x elapsed=0:00:08.24    \nframe=  501 fps= 57 q=38.0 size=    1792KiB time=00:00:04.15 bitrate=3530.4kbits/s speed=0.475x elapsed=0:00:08.75    \nframe=  526 fps= 57 q=38.0 size=    1792KiB time=00:00:04.36 bitrate=3361.9kbits/s speed=0.47x elapsed=0:00:09.28    \nframe=  593 fps= 61 q=-1.0 size=    2048KiB time=00:00:04.92 bitrate=3406.6kbits/s speed=0.503x elapsed=0:00:09.79    \n[mp4 @ 000001d2ddb1a280] Starting second pass: moving the moov atom to the beginning of the file\n[out#0/mp4 @ 000001d2ddb1a180] video:2293KiB audio:0KiB subtitle:0KiB other streams:0KiB global headers:0KiB muxing overhead: 0.246811%\nframe=  600 fps= 61 q=-1.0 Lsize=    2299KiB time=00:00:04.98 bitrate=3778.6kbits/s speed=0.505x elapsed=0:00:09.87    \n[libx264 @ 000001d2ddb1c940] frame I:3     Avg QP:35.33  size: 16882\n[libx264 @ 000001d2ddb1c940] frame P:367   Avg QP:36.24  size:  4559\n[libx264 @ 000001d2ddb1c940] frame B:230   Avg QP:37.76  size:  2710\n[libx264 @ 000001d2ddb1c940] consecutive B-frames: 48.7%  0.7%  0.0% 50.7%\n[libx264 @ 000001d2ddb1c940] mb I  I16..4: 36.9% 60.6%  2.5%\n[libx264 @ 000001d2ddb1c940] mb P  I16..4:  0.5%  1.4%  0.0%  P16..4: 19.0%  1.3%  1.6%  0.0%  0.0%    skip:76.2%\n[libx264 @ 000001d2ddb1c940] mb B  I16..4:  0.1%  0.2%  0.0%  B16..8: 27.0%  0.7%  0.1%  direct: 0.1%  skip:71.8%  L0:40.8% L1:58.7% BI: 0.5%\n[libx264 @ 000001d2ddb1c940] 8x8 transform intra:69.1% inter:95.6%\n[libx264 @ 000001d2ddb1c940] direct mvs  spatial:95.7% temporal:4.3%\n[libx264 @ 000001d2ddb1c940] coded y,uvDC,uvAC intra: 25.2% 20.7% 0.8% inter: 1.8% 1.8% 0.0%\n[libx264 @ 000001d2ddb1c940] i16 v,h,dc,p: 13% 26%  3% 57%\n[libx264 @ 000001d2ddb1c940] i8 v,h,dc,ddl,ddr,vr,hd,vl,hu:  2%  3% 13%  7% 28% 11% 21%  6%  8%\n[libx264 @ 000001d2ddb1c940] i4 v,h,dc,ddl,ddr,vr,hd,vl,hu:  4%  3%  4%  8% 49%  9% 13%  3%  6%\n[libx264 @ 000001d2ddb1c940] i8c dc,h,v,p: 57% 27%  8%  9%\n[libx264 @ 000001d2ddb1c940] Weighted P-Frames: Y:0.0% UV:0.0%\n[libx264 @ 000001d2ddb1c940] ref P L0: 51.8% 14.5% 17.7%  6.1%  6.0%  3.9%\n[libx264 @ 000001d2ddb1c940] ref B L0: 84.6% 10.5%  3.8%  1.2%\n[libx264 @ 000001d2ddb1c940] ref B L1: 95.8%  4.2%\n[libx264 @ 000001d2ddb1c940] kb/s:3755.49\n",
  "seconds": 9.938129186630249,
  "probe_out": {}
}